<svg width="183" height="135" viewBox="0 0 183 135" fill="none" xmlns="http://www.w3.org/2000/svg">
<mask id="mask0_1_84" style="mask-type:luminance" maskUnits="userSpaceOnUse" x="0" y="0" width="183" height="135">
<path d="M183 0H0V135H183V0Z" fill="white"/>
</mask>
<g mask="url(#mask0_1_84)">
<path d="M174.661 75.1225C174.97 75.0115 175.295 74.8925 175.644 74.7735C178.965 73.5917 180.225 73.3299 181.105 73.5758C181.898 73.8376 182.255 74.5831 182.318 76.2171C182.318 76.2964 182.334 76.574 182.326 76.8437L178.822 78.089C178.775 77.4386 178.719 77.272 178.513 77.1451C178.22 76.9865 177.808 77.0975 175.073 78.0652C174.867 78.1366 174.669 78.208 174.479 78.2794C171.982 79.1836 171.768 79.3898 171.807 80.302C171.831 80.7779 171.998 80.9841 172.346 80.9841C172.671 80.9683 173.607 80.6986 176.215 79.8499C180.067 78.6046 180.875 78.438 181.644 78.668C182.54 78.9377 182.905 79.7388 182.984 81.6266C183.079 83.8793 182.659 85.1801 181.517 86.1081C180.86 86.6713 179.615 87.2265 176.587 88.3211C176.294 88.4242 175.985 88.5353 175.66 88.6542C172.085 89.9233 170.61 90.2644 169.731 90.0344C168.811 89.7964 168.494 89.0984 168.415 87.2027L168.391 86.5682L171.91 85.3149C171.942 86.0526 172.029 86.3461 172.323 86.4413C172.727 86.5602 172.759 86.5523 175.62 85.5529C175.771 85.4974 175.913 85.4498 176.056 85.3943C179.512 84.149 179.512 84.1014 179.464 82.9909C179.433 82.1977 179.155 82.0867 177.99 82.4833C177.578 82.634 176.397 82.9909 175.129 83.3796C173.805 83.7682 172.624 84.1331 172.228 84.2679C170.492 84.8232 169.643 84.8469 169.073 84.3552C168.597 83.9189 168.351 83.1337 168.296 81.8011C168.217 79.8261 168.573 78.4856 169.39 77.6686C170.222 76.8517 171.165 76.3757 174.653 75.1146L174.661 75.1225Z" fill="black"/>
<path d="M153.83 82.7212L167.02 78.0335L167.147 81.1666L157.532 84.5852L157.611 86.5126L166.742 83.2685L166.869 86.1954L157.738 89.4395L157.825 91.5573L167.511 88.1149L167.638 91.3035L154.377 96.015L153.83 82.7212Z" fill="black"/>
<path d="M148.345 84.6724L152.15 83.324L152.697 96.6099L148.892 97.9662L148.345 84.6724Z" fill="black"/>
<path d="M147.204 89.4712C147.283 91.3987 147.132 92.2077 146.57 92.9692C146.229 93.4133 145.896 93.6989 145.151 94.0796C146.998 93.6672 147.346 94.151 147.402 97.2444L147.45 98.4818L143.875 99.7509L143.843 99.0529C143.74 96.6337 143.621 96.4037 141.719 97.0937C141.6 97.1334 141.481 97.181 141.354 97.2286L136.226 99.0529L136.368 102.416L132.738 103.709L132.191 90.4151L140.966 87.2979C143.703 86.3249 145.336 85.9204 145.864 86.0843C146.8 86.3778 147.109 87.1551 147.204 89.4712ZM143.597 91.359C143.566 90.4786 143.423 90.1454 143.058 90.0978C142.789 90.0502 142.749 90.0661 141.069 90.6451L135.956 92.4615L136.091 95.7294L141.203 93.9131C142.392 93.4636 143.069 93.1542 143.233 92.985C143.55 92.6519 143.637 92.2315 143.597 91.359Z" fill="black"/>
<path d="M116.766 95.9039L131.192 90.772L131.327 94.1589L126.024 96.0467L126.428 105.946L122.623 107.302L122.211 97.4031L116.908 99.2908L116.766 95.9039Z" fill="black"/>
<path d="M108.245 98.7277C108.554 98.6166 108.887 98.4977 109.236 98.3707C112.557 97.1889 113.817 96.9192 114.697 97.173C115.49 97.4348 115.846 98.1804 115.91 99.8143C115.91 99.8937 115.926 100.171 115.91 100.441L112.406 101.686C112.359 101.036 112.303 100.877 112.097 100.742C111.804 100.584 111.384 100.695 108.657 101.662C108.443 101.742 108.245 101.805 108.063 101.877C105.566 102.781 105.36 102.987 105.399 103.891C105.423 104.367 105.589 104.573 105.938 104.573C106.263 104.558 107.199 104.288 109.806 103.439C113.651 102.194 114.459 102.027 115.236 102.257C116.132 102.527 116.496 103.328 116.576 105.216C116.671 107.469 116.251 108.769 115.109 109.697C114.451 110.261 113.207 110.816 110.163 111.918C109.878 112.021 109.569 112.132 109.244 112.244C105.669 113.513 104.194 113.854 103.315 113.624C102.395 113.386 102.078 112.688 101.999 110.792L101.975 110.157L105.494 108.904C105.526 109.642 105.605 109.935 105.906 110.031C106.311 110.15 106.342 110.142 109.204 109.142C111.799 108.206 113.08 107.352 113.048 106.58C113.017 105.779 112.739 105.676 111.574 106.073C111.162 106.215 109.981 106.58 108.712 106.969C107.389 107.358 106.208 107.722 105.811 107.857C104.075 108.412 103.227 108.436 102.665 107.944C102.197 107.508 101.943 106.723 101.888 105.39C101.808 103.423 102.165 102.075 102.99 101.258C103.822 100.441 104.757 99.9651 108.245 98.7039V98.7277Z" fill="black"/>
<path d="M84.9727 107.199L88.603 105.906L88.8567 112.021C88.9756 114.1 88.9756 114.123 89.0945 114.623C89.3323 115.607 90.0377 115.583 93.1291 114.48C93.2559 114.433 93.3748 114.393 93.4858 114.353C95.7052 113.552 96.3948 113.172 96.7515 112.585C97.021 112.148 97.0844 111.76 97.1003 110.578C97.1003 110.078 97.0844 109.388 97.0765 109.095L96.8228 102.979L100.453 101.686L100.707 107.802C100.778 110.832 100.77 111.054 100.707 112.029C100.572 113.616 99.7081 114.996 98.3606 115.797C97.3856 116.368 96.2997 116.836 93.9851 117.677C93.779 117.748 93.5571 117.828 93.3352 117.915C88.7774 119.533 87.3348 119.763 86.3994 119.025C85.8049 118.573 85.5751 117.867 85.4086 116.083C85.3663 115.718 85.3109 114.795 85.2422 113.314L84.9885 107.199H84.9727Z" fill="black"/>
<path d="M83.3869 110.316C83.696 111.157 83.7991 111.966 83.8942 114.139C84.0369 117.605 83.8228 119.057 82.9906 120.263C82.1583 121.444 81.1754 122.024 77.6243 123.301C77.442 123.364 77.2438 123.435 77.0457 123.507L68.4533 126.561L67.8984 113.275L76.4908 110.221C79.5267 109.142 79.9388 109.015 80.9693 108.888C82.1583 108.73 82.9747 109.206 83.3869 110.316ZM80.3193 115.646C80.2559 114.012 80.0974 113.322 79.7169 113.005C79.3206 112.664 78.8371 112.751 76.6176 113.536L71.5922 115.321L71.8617 121.897L76.9188 120.096C77.0377 120.056 77.1487 120.017 77.2597 119.977C80.2242 118.906 80.4303 118.541 80.3035 115.638" fill="black"/>
<path d="M49.644 119.763L56.0091 117.502L62.6594 125.188L63.032 125.053L62.5326 115.178L66.2343 113.862L66.7812 127.155L60.4717 129.4L53.7896 121.706L53.3933 121.841L53.8927 131.732L50.1989 133.049L49.644 119.763Z" fill="black"/>
<path d="M44.1587 121.714L47.9634 120.358L48.5183 133.652L44.7135 135L44.1587 121.714Z" fill="black"/>
<path d="M182.865 11.0969C182.865 11.0414 182.849 10.9859 182.826 10.9383C182.826 10.9224 182.81 10.9145 182.802 10.8986C182.778 10.8589 182.754 10.8272 182.723 10.8034C182.723 10.8034 182.715 10.7876 182.707 10.7796C182.707 10.7796 182.707 10.7796 182.699 10.7796C182.659 10.7479 182.612 10.7241 182.564 10.7162L140.712 0.0161092C140.649 0.000245502 140.585 0.000245502 140.522 0.0161092L97.758 10.5813C97.7104 10.5972 97.6629 10.6131 97.6233 10.6448C97.6233 10.6448 97.6233 10.6448 97.6153 10.6448C97.6153 10.6448 97.6074 10.6606 97.5995 10.6606C97.5678 10.6924 97.5361 10.7241 97.5123 10.7638C97.5123 10.7796 97.4964 10.7876 97.4885 10.7955C97.4647 10.8431 97.4489 10.8907 97.4489 10.9462V20.8927L92.0033 19.3777C91.9399 19.3619 91.8686 19.3619 91.7972 19.3777L50.8646 29.7447C50.8646 29.7447 50.8487 29.7605 50.8408 29.7605C50.8012 29.7764 50.7616 29.7843 50.7299 29.8081C50.714 29.824 50.7061 29.8398 50.6902 29.8557C50.6744 29.8716 50.6585 29.8874 50.6506 29.9033C50.611 29.9588 50.5872 30.0302 50.5792 30.1016C50.5792 30.1016 50.5792 30.1095 50.5792 30.1175V40.6272L42.2564 38.2555C42.185 38.2317 42.1137 38.2317 42.0424 38.2555L0.293282 49.5901C0.293282 49.5901 0.277429 49.606 0.261576 49.6139C0.22987 49.6298 0.190237 49.6377 0.158531 49.6615C0.142678 49.6774 0.126825 49.7012 0.110972 49.717C0.0951185 49.7329 0.0792654 49.7488 0.0713389 49.7646C0.0317062 49.8281 0.00792654 49.8915 0 49.9629C0 49.9629 0 49.9629 0 49.9709L0.103045 101.956C0.103045 102.115 0.198163 102.258 0.340841 102.321L39.4187 119.176C39.4662 119.2 39.5217 119.208 39.5772 119.208C39.6248 119.208 39.6644 119.208 39.712 119.184L84.6237 103.233C84.7823 103.178 84.8853 103.027 84.8853 102.86V99.0531L89.1894 101.48C89.2528 101.512 89.3162 101.528 89.3876 101.528C89.4351 101.528 89.4748 101.528 89.5223 101.504L133.776 85.7514C133.935 85.6959 134.038 85.5452 134.038 85.3786V81.5872L138.445 83.9905C138.508 84.0223 138.572 84.0381 138.635 84.0381C138.683 84.0381 138.722 84.0381 138.77 84.0143L182.738 68.4441C182.897 68.3886 183 68.2379 183 68.0713L182.865 11.0969ZM156.454 4.85453L164.785 6.98027L122.6 17.6486L114.721 15.388L156.303 4.93385C156.367 4.91799 156.414 4.88626 156.462 4.8466L156.454 4.85453ZM138.643 22.257L124.114 18.0849L166.394 7.39272L180.892 11.0969L138.635 22.257H138.643ZM140.609 0.809294L154.924 4.46587L113.246 14.9438C113.246 14.9438 113.223 14.9597 113.207 14.9597L99.3829 10.9938L140.609 0.809294ZM91.8924 20.1868L104.852 23.8037L65.1482 33.7899C65.1482 33.7899 65.0927 33.8137 65.069 33.8296L52.4816 30.173L91.9003 20.1947L91.8924 20.1868ZM89.451 40.8968L75.8808 36.9547L115.823 26.8495L132.017 31.3628L89.4589 40.8889L89.451 40.8968ZM74.3747 36.5185L66.5433 34.242L106.398 24.2241L114.285 26.4212L74.3747 36.5185ZM42.1375 39.0646L56.0089 43.0226L13.9903 53.5878C13.9903 53.5878 13.9745 53.5878 13.9745 53.5957L1.84688 49.9867L42.1375 39.0646ZM39.4425 61.1706L24.6753 56.7764L66.8445 46.1081L82.9037 50.6847L39.4504 61.1627L39.4425 61.1706ZM23.1851 56.3322L15.4568 54.032L57.515 43.4588C57.515 43.4588 57.5229 43.4588 57.5308 43.4588L65.3226 45.6797L23.1851 56.3401V56.3322ZM0.895699 101.694L0.792654 50.5023L39.0382 61.8766L39.1809 118.216L0.895699 101.694ZM39.9735 118.256L39.8309 61.8924L84.061 51.2241L84.0927 98.2123C84.053 98.3075 84.053 98.4106 84.0927 98.4979V102.583L39.9735 118.256ZM84.8536 50.7244C84.8536 50.7244 84.8536 50.7165 84.8536 50.7085C84.8536 50.6609 84.8378 50.6133 84.8219 50.5737C84.8219 50.5578 84.806 50.5499 84.7981 50.534C84.7743 50.4944 84.7506 50.4626 84.7188 50.4388C84.7188 50.4388 84.7109 50.423 84.703 50.4151C84.703 50.4151 84.703 50.4151 84.6951 50.4151C84.6554 50.3833 84.6158 50.3595 84.5682 50.3516L51.364 40.881V30.6727L68.8658 35.757L89.0388 41.6186L88.9833 100.465L84.8774 98.1568L84.8457 50.7323L84.8536 50.7244ZM133.245 85.101L89.7839 100.576L89.8394 41.6345L133.245 31.918V85.1089V85.101ZM138.239 82.9753L134.038 80.683V31.4103C134.038 31.4103 134.038 31.4024 134.038 31.3945C134.038 31.3469 134.022 31.2993 134.006 31.2596C134.006 31.2438 133.99 31.2358 133.982 31.22C133.959 31.1803 133.935 31.1486 133.903 31.1248C133.903 31.1248 133.895 31.1089 133.887 31.101C133.887 31.101 133.887 31.101 133.879 31.101C133.84 31.0693 133.8 31.0455 133.744 31.0296L98.2415 21.1307V11.4935L122.251 18.3863C122.322 18.4497 122.41 18.4894 122.505 18.4894C122.528 18.4894 122.552 18.4894 122.568 18.4814L138.231 22.9788V82.9832L138.239 82.9753ZM139.031 83.0863V22.9788L182.073 11.6125L182.199 67.7937L139.024 83.0863H139.031Z" fill="black"/>
<path d="M24.8099 69.1974L12.3415 65.1998C12.0244 65.0967 11.6994 65.1442 11.422 65.3346C11.0415 65.6043 10.8117 66.104 10.7958 66.7147C10.7641 67.7062 11.2872 68.6581 11.9927 68.8881L24.4612 72.8857C24.5721 72.9175 24.6831 72.9412 24.7861 72.9412C24.9922 72.9412 25.1983 72.8778 25.3727 72.7509C25.7532 72.4891 25.9831 71.9815 25.9989 71.3707C26.0306 70.3793 25.5075 69.4274 24.802 69.1974H24.8099ZM24.9209 72.1005C24.8496 72.1481 24.7861 72.156 24.699 72.1322L12.2305 68.1346C11.9055 68.0314 11.5567 67.4365 11.5805 66.7465C11.5964 66.3261 11.747 66.0802 11.8738 65.985C11.9214 65.9533 11.961 65.9374 12.0086 65.9374C12.0323 65.9374 12.064 65.9374 12.0958 65.9533L24.5642 69.9509C24.8892 70.0541 25.238 70.6489 25.2142 71.339C25.1983 71.7594 25.0477 72.0053 24.9209 72.1005Z" fill="black"/>
<path d="M126.016 54.817C125.985 46.4092 119.786 41.6581 112.177 44.2042C104.567 46.7503 98.424 55.634 98.4557 64.0417L98.5032 75.2177C98.535 83.6254 104.734 88.3766 112.343 85.8305C119.952 83.2844 126.096 74.4007 126.064 65.993L126.016 54.817ZM112.351 75.6381L112.24 75.6777C111.614 75.8919 111.099 75.4953 111.099 74.7973L111.027 56.0306C111.027 55.3326 111.534 54.6028 112.161 54.3887L112.272 54.349C112.898 54.1348 113.413 54.5314 113.413 55.2294L113.484 73.9962C113.484 74.6942 112.977 75.4239 112.351 75.6381Z" fill="black"/>
<path d="M72.3061 79.4533V79.3343C75.6194 77.0896 78.5601 73.7582 78.6315 68.6581C78.7266 62.0508 73.9707 59.8061 65.7588 62.5109L48.2808 68.0473L48.3521 109.499L66.1789 103.63C74.4463 100.909 79.8125 94.9839 79.9235 87.0441C80.0107 80.8414 76.4834 78.8267 72.2982 79.4533H72.3061ZM64.546 92.7629C64.5381 93.5006 63.9832 94.27 63.3095 94.4921L62.0809 94.8966L62.1918 87.282L63.4205 86.8775C64.0942 86.6554 64.6332 87.0679 64.6253 87.8055L64.5539 92.7629H64.546ZM64.7363 79.1836C64.7283 79.9213 64.1735 80.6907 63.4997 80.9128L62.2711 81.3173L62.3821 73.7027L63.6107 73.2982C64.2844 73.0761 64.8234 73.4886 64.8155 74.2262L64.7442 79.1836H64.7363Z" fill="black"/>
<path d="M179.235 19.7741L164.618 24.668L161.868 31.3229L159.07 26.5241L144.453 31.418L154.615 48.8443L144.612 73.0206L159.228 68.1266L161.987 61.4718L164.785 66.2706L179.401 61.3766L169.231 43.9504L179.235 19.7741Z" fill="black"/>
</g>
<mask id="mask1_1_84" style="mask-type:luminance" maskUnits="userSpaceOnUse" x="1" y="-1" width="183" height="135">
<path d="M184 -1H1V134H184V-1Z" fill="white"/>
</mask>
<g mask="url(#mask1_1_84)">
<path d="M175.661 74.1225C175.97 74.0115 176.295 73.8925 176.644 73.7735C179.965 72.5917 181.225 72.3299 182.105 72.5758C182.898 72.8376 183.255 73.5831 183.318 75.2171C183.318 75.2964 183.334 75.574 183.326 75.8437L179.822 77.089C179.775 76.4386 179.719 76.272 179.513 76.1451C179.22 75.9865 178.808 76.0975 176.073 77.0652C175.867 77.1366 175.669 77.208 175.479 77.2794C172.982 78.1836 172.768 78.3898 172.807 79.302C172.831 79.7779 172.998 79.9841 173.346 79.9841C173.671 79.9683 174.607 79.6986 177.215 78.8499C181.067 77.6046 181.875 77.438 182.644 77.668C183.54 77.9377 183.905 78.7388 183.984 80.6266C184.079 82.8793 183.659 84.1801 182.517 85.1081C181.86 85.6713 180.615 86.2265 177.587 87.3211C177.294 87.4242 176.985 87.5353 176.66 87.6542C173.085 88.9233 171.61 89.2644 170.731 89.0344C169.811 88.7964 169.494 88.0984 169.415 86.2027L169.391 85.5682L172.91 84.3149C172.942 85.0526 173.029 85.3461 173.323 85.4413C173.727 85.5602 173.759 85.5523 176.62 84.5529C176.771 84.4974 176.913 84.4498 177.056 84.3943C180.512 83.149 180.512 83.1014 180.464 81.9909C180.433 81.1977 180.155 81.0867 178.99 81.4833C178.578 81.634 177.397 81.9909 176.129 82.3796C174.805 82.7682 173.624 83.1331 173.228 83.2679C171.492 83.8232 170.643 83.8469 170.073 83.3552C169.597 82.9189 169.351 82.1337 169.296 80.8011C169.217 78.8261 169.573 77.4856 170.39 76.6686C171.222 75.8517 172.165 75.3757 175.653 74.1146L175.661 74.1225Z" fill="white"/>
<path d="M154.83 81.7212L168.02 77.0335L168.147 80.1666L158.532 83.5852L158.611 85.5126L167.742 82.2685L167.869 85.1954L158.738 88.4395L158.825 90.5573L168.511 87.1149L168.638 90.3035L155.377 95.015L154.83 81.7212Z" fill="white"/>
<path d="M149.345 83.6724L153.15 82.324L153.697 95.6099L149.892 96.9662L149.345 83.6724Z" fill="white"/>
<path d="M148.204 88.4712C148.283 90.3987 148.132 91.2077 147.57 91.9692C147.229 92.4133 146.896 92.6989 146.151 93.0796C147.998 92.6672 148.346 93.151 148.402 96.2444L148.45 97.4818L144.875 98.7509L144.843 98.0529C144.74 95.6337 144.621 95.4037 142.719 96.0937C142.6 96.1334 142.481 96.181 142.354 96.2286L137.226 98.0529L137.368 101.416L133.738 102.709L133.191 89.4151L141.966 86.2979C144.703 85.3249 146.336 84.9204 146.864 85.0843C147.8 85.3778 148.109 86.1551 148.204 88.4712ZM144.597 90.359C144.566 89.4786 144.423 89.1454 144.058 89.0978C143.789 89.0502 143.749 89.0661 142.069 89.6451L136.956 91.4615L137.091 94.7294L142.203 92.9131C143.392 92.4636 144.069 92.1542 144.233 91.985C144.55 91.6519 144.637 91.2315 144.597 90.359Z" fill="white"/>
<path d="M117.766 94.9039L132.192 89.772L132.327 93.1589L127.024 95.0467L127.428 104.946L123.623 106.302L123.211 96.4031L117.908 98.2908L117.766 94.9039Z" fill="white"/>
<path d="M109.245 97.7277C109.554 97.6166 109.887 97.4977 110.236 97.3707C113.557 96.1889 114.817 95.9192 115.697 96.173C116.49 96.4348 116.846 97.1804 116.91 98.8143C116.91 98.8937 116.926 99.171 116.91 99.441L113.406 100.686C113.359 100.036 113.303 99.877 113.097 99.742C112.804 99.584 112.384 99.695 109.657 100.662C109.443 100.742 109.245 100.805 109.063 100.877C106.566 101.781 106.36 101.987 106.399 102.891C106.423 103.367 106.589 103.573 106.938 103.573C107.263 103.558 108.199 103.288 110.806 102.439C114.651 101.194 115.459 101.027 116.236 101.257C117.132 101.527 117.496 102.328 117.576 104.216C117.671 106.469 117.251 107.769 116.109 108.697C115.451 109.261 114.207 109.816 111.163 110.918C110.878 111.021 110.569 111.132 110.244 111.244C106.669 112.513 105.194 112.854 104.315 112.624C103.395 112.386 103.078 111.688 102.999 109.792L102.975 109.157L106.494 107.904C106.526 108.642 106.605 108.935 106.906 109.031C107.311 109.15 107.342 109.142 110.204 108.142C112.799 107.206 114.08 106.352 114.048 105.58C114.017 104.779 113.739 104.676 112.574 105.073C112.162 105.215 110.981 105.58 109.712 105.969C108.389 106.358 107.208 106.722 106.811 106.857C105.075 107.412 104.227 107.436 103.665 106.944C103.197 106.508 102.943 105.723 102.888 104.39C102.808 102.423 103.165 101.075 103.99 100.258C104.822 99.441 105.757 98.9651 109.245 97.7039V97.7277Z" fill="white"/>
<path d="M85.9727 106.199L89.603 104.906L89.8567 111.021C89.9756 113.1 89.9756 113.123 90.0945 113.623C90.3323 114.607 91.0377 114.583 94.1291 113.48C94.2559 113.433 94.3748 113.393 94.4858 113.353C96.7052 112.552 97.3948 112.172 97.7515 111.585C98.021 111.148 98.0844 110.76 98.1003 109.578C98.1003 109.078 98.0844 108.388 98.0765 108.095L97.8228 101.979L101.453 100.686L101.707 106.802C101.778 109.832 101.77 110.054 101.707 111.029C101.572 112.616 100.708 113.996 99.3606 114.797C98.3856 115.368 97.2997 115.836 94.9851 116.677C94.779 116.748 94.5571 116.828 94.3352 116.915C89.7774 118.533 88.3348 118.763 87.3994 118.025C86.8049 117.573 86.5751 116.867 86.4086 115.083C86.3663 114.718 86.3109 113.795 86.2422 112.314L85.9885 106.199H85.9727Z" fill="white"/>
<path d="M84.3869 109.316C84.696 110.157 84.7991 110.966 84.8942 113.139C85.0369 116.605 84.8228 118.057 83.9906 119.263C83.1583 120.444 82.1754 121.024 78.6243 122.301C78.442 122.364 78.2438 122.435 78.0457 122.507L69.4533 125.561L68.8984 112.275L77.4908 109.221C80.5267 108.142 80.9388 108.015 81.9693 107.888C83.1583 107.73 83.9747 108.206 84.3869 109.316ZM81.3193 114.646C81.2559 113.012 81.0974 112.322 80.7169 112.005C80.3206 111.664 79.8371 111.751 77.6176 112.536L72.5922 114.321L72.8617 120.897L77.9188 119.096C78.0377 119.056 78.1487 119.017 78.2597 118.977C81.2242 117.906 81.4303 117.541 81.3035 114.638" fill="white"/>
<path d="M50.644 118.763L57.0091 116.502L63.6594 124.188L64.032 124.053L63.5326 114.178L67.2343 112.862L67.7812 126.155L61.4717 128.4L54.7896 120.706L54.3933 120.841L54.8927 130.732L51.1989 132.049L50.644 118.763Z" fill="white"/>
<path d="M45.1587 120.714L48.9634 119.358L49.5183 132.652L45.7135 134L45.1587 120.714Z" fill="white"/>
<path d="M183.865 10.0969C183.865 10.0414 183.849 9.9859 183.826 9.9383C183.826 9.9224 183.81 9.9145 183.802 9.8986C183.778 9.8589 183.754 9.8272 183.723 9.8034C183.723 9.8034 183.715 9.7876 183.707 9.7796C183.707 9.7796 183.707 9.7796 183.699 9.7796C183.659 9.7479 183.612 9.7241 183.564 9.7162L141.712 -0.983891C141.649 -0.999754 141.585 -0.999754 141.522 -0.983891L98.758 9.5813C98.7104 9.5972 98.6629 9.6131 98.6233 9.6448C98.6233 9.6448 98.6233 9.6448 98.6153 9.6448C98.6153 9.6448 98.6074 9.6606 98.5995 9.6606C98.5678 9.6924 98.5361 9.7241 98.5123 9.7638C98.5123 9.7796 98.4964 9.7876 98.4885 9.7955C98.4647 9.8431 98.4489 9.8907 98.4489 9.9462V19.8927L93.0033 18.3777C92.9399 18.3619 92.8686 18.3619 92.7972 18.3777L51.8646 28.7447C51.8646 28.7447 51.8487 28.7605 51.8408 28.7605C51.8012 28.7764 51.7616 28.7843 51.7299 28.8081C51.714 28.824 51.7061 28.8398 51.6902 28.8557C51.6744 28.8716 51.6585 28.8874 51.6506 28.9033C51.611 28.9588 51.5872 29.0302 51.5792 29.1016C51.5792 29.1016 51.5792 29.1095 51.5792 29.1175V39.6272L43.2564 37.2555C43.185 37.2317 43.1137 37.2317 43.0424 37.2555L1.29328 48.5901C1.29328 48.5901 1.27743 48.606 1.26158 48.6139C1.22987 48.6298 1.19024 48.6377 1.15853 48.6615C1.14268 48.6774 1.12683 48.7012 1.11097 48.717C1.09512 48.7329 1.07927 48.7488 1.07134 48.7646C1.03171 48.8281 1.00793 48.8915 1 48.9629C1 48.9629 1 48.9629 1 48.9709L1.10305 100.956C1.10305 101.115 1.19816 101.258 1.34084 101.321L40.4187 118.176C40.4662 118.2 40.5217 118.208 40.5772 118.208C40.6248 118.208 40.6644 118.208 40.712 118.184L85.6237 102.233C85.7823 102.178 85.8853 102.027 85.8853 101.86V98.0531L90.1894 100.48C90.2528 100.512 90.3162 100.528 90.3876 100.528C90.4351 100.528 90.4748 100.528 90.5223 100.504L134.776 84.7514C134.935 84.6959 135.038 84.5452 135.038 84.3786V80.5872L139.445 82.9905C139.508 83.0223 139.572 83.0381 139.635 83.0381C139.683 83.0381 139.722 83.0381 139.77 83.0143L183.738 67.4441C183.897 67.3886 184 67.2379 184 67.0713L183.865 10.0969ZM157.454 3.85453L165.785 5.98027L123.6 16.6486L115.721 14.388L157.303 3.93385C157.367 3.91799 157.414 3.88626 157.462 3.8466L157.454 3.85453ZM139.643 21.257L125.114 17.0849L167.394 6.39272L181.892 10.0969L139.635 21.257H139.643ZM141.609 -0.190706L155.924 3.46587L114.246 13.9438C114.246 13.9438 114.223 13.9597 114.207 13.9597L100.383 9.9938L141.609 -0.190706ZM92.8924 19.1868L105.852 22.8037L66.1482 32.7899C66.1482 32.7899 66.0927 32.8137 66.069 32.8296L53.4816 29.173L92.9003 19.1947L92.8924 19.1868ZM90.451 39.8968L76.8808 35.9547L116.823 25.8495L133.017 30.3628L90.4589 39.8889L90.451 39.8968ZM75.3747 35.5185L67.5433 33.242L107.398 23.2241L115.285 25.4212L75.3747 35.5185ZM43.1375 38.0646L57.0089 42.0226L14.9903 52.5878C14.9903 52.5878 14.9745 52.5878 14.9745 52.5957L2.84688 48.9867L43.1375 38.0646ZM40.4425 60.1706L25.6753 55.7764L67.8445 45.1081L83.9037 49.6847L40.4504 60.1627L40.4425 60.1706ZM24.1851 55.3322L16.4568 53.032L58.515 42.4588C58.515 42.4588 58.5229 42.4588 58.5308 42.4588L66.3226 44.6797L24.1851 55.3401V55.3322ZM1.8957 100.694L1.79265 49.5023L40.0382 60.8766L40.1809 117.216L1.8957 100.694ZM40.9735 117.256L40.8309 60.8924L85.061 50.2241L85.0927 97.2123C85.053 97.3075 85.053 97.4106 85.0927 97.4979V101.583L40.9735 117.256ZM85.8536 49.7244C85.8536 49.7244 85.8536 49.7165 85.8536 49.7085C85.8536 49.6609 85.8378 49.6133 85.8219 49.5737C85.8219 49.5578 85.806 49.5499 85.7981 49.534C85.7743 49.4944 85.7506 49.4626 85.7188 49.4388C85.7188 49.4388 85.7109 49.423 85.703 49.4151C85.703 49.4151 85.703 49.4151 85.6951 49.4151C85.6554 49.3833 85.6158 49.3595 85.5682 49.3516L52.364 39.881V29.6727L69.8658 34.757L90.0388 40.6186L89.9833 99.465L85.8774 97.1568L85.8457 49.7323L85.8536 49.7244ZM134.245 84.101L90.7839 99.576L90.8394 40.6345L134.245 30.918V84.1089V84.101ZM139.239 81.9753L135.038 79.683V30.4103C135.038 30.4103 135.038 30.4024 135.038 30.3945C135.038 30.3469 135.022 30.2993 135.006 30.2596C135.006 30.2438 134.99 30.2358 134.982 30.22C134.959 30.1803 134.935 30.1486 134.903 30.1248C134.903 30.1248 134.895 30.1089 134.887 30.101C134.887 30.101 134.887 30.101 134.879 30.101C134.84 30.0693 134.8 30.0455 134.744 30.0296L99.2415 20.1307V10.4935L123.251 17.3863C123.322 17.4497 123.41 17.4894 123.505 17.4894C123.528 17.4894 123.552 17.4894 123.568 17.4814L139.231 21.9788V81.9832L139.239 81.9753ZM140.031 82.0863V21.9788L183.073 10.6125L183.199 66.7937L140.024 82.0863H140.031Z" fill="white"/>
<path d="M25.8099 68.1974L13.3415 64.1998C13.0244 64.0967 12.6994 64.1442 12.422 64.3346C12.0415 64.6043 11.8117 65.104 11.7958 65.7147C11.7641 66.7062 12.2872 67.6581 12.9927 67.8881L25.4612 71.8857C25.5721 71.9175 25.6831 71.9412 25.7861 71.9412C25.9922 71.9412 26.1983 71.8778 26.3727 71.7509C26.7532 71.4891 26.9831 70.9815 26.9989 70.3707C27.0306 69.3793 26.5075 68.4274 25.802 68.1974H25.8099ZM25.9209 71.1005C25.8496 71.1481 25.7861 71.156 25.699 71.1322L13.2305 67.1346C12.9055 67.0314 12.5567 66.4365 12.5805 65.7465C12.5964 65.3261 12.747 65.0802 12.8738 64.985C12.9214 64.9533 12.961 64.9374 13.0086 64.9374C13.0323 64.9374 13.064 64.9374 13.0958 64.9533L25.5642 68.9509C25.8892 69.0541 26.238 69.6489 26.2142 70.339C26.1983 70.7594 26.0477 71.0053 25.9209 71.1005Z" fill="white"/>
<path d="M127.016 53.817C126.985 45.4092 120.786 40.6581 113.177 43.2042C105.567 45.7503 99.424 54.634 99.4557 63.0417L99.5032 74.2177C99.535 82.6254 105.734 87.3766 113.343 84.8305C120.952 82.2844 127.096 73.4007 127.064 64.993L127.016 53.817ZM113.351 74.6381L113.24 74.6777C112.614 74.8919 112.099 74.4953 112.099 73.7973L112.027 55.0306C112.027 54.3326 112.534 53.6028 113.161 53.3887L113.272 53.349C113.898 53.1348 114.413 53.5314 114.413 54.2294L114.484 72.9962C114.484 73.6942 113.977 74.4239 113.351 74.6381Z" fill="white"/>
<path d="M73.3061 78.4533V78.3343C76.6194 76.0896 79.5601 72.7582 79.6315 67.6581C79.7266 61.0508 74.9707 58.8061 66.7588 61.5109L49.2808 67.0473L49.3521 108.499L67.1789 102.63C75.4463 99.909 80.8125 93.9839 80.9235 86.0441C81.0107 79.8414 77.4834 77.8267 73.2982 78.4533H73.3061ZM65.546 91.7629C65.5381 92.5006 64.9832 93.27 64.3095 93.4921L63.0809 93.8966L63.1918 86.282L64.4205 85.8775C65.0942 85.6554 65.6332 86.0679 65.6253 86.8055L65.5539 91.7629H65.546ZM65.7363 78.1836C65.7283 78.9213 65.1735 79.6907 64.4997 79.9128L63.2711 80.3173L63.3821 72.7027L64.6107 72.2982C65.2844 72.0761 65.8234 72.4886 65.8155 73.2262L65.7442 78.1836H65.7363Z" fill="white"/>
<path d="M180.235 18.7741L165.618 23.668L162.868 30.3229L160.07 25.5241L145.453 30.418L155.615 47.8443L145.612 72.0206L160.228 67.1266L162.987 60.4718L165.785 65.2706L180.401 60.3766L170.231 42.9504L180.235 18.7741Z" fill="white"/>
</g>
</svg>
